<?xml version="1.0" standalone="no"?><!DOCTYPE svg PUBLIC "-//W3C//DTD SVG 1.1//EN" "http://www.w3.org/Graphics/SVG/1.1/DTD/svg11.dtd"><svg t="1761568402235" class="icon" viewBox="0 0 1024 1024" version="1.1" xmlns="http://www.w3.org/2000/svg" p-id="15242" width="25" height="25" xmlns:xlink="http://www.w3.org/1999/xlink"><path d="M409.6 665.6m-102.4 0a102.4 102.4 0 1 0 204.8 0 102.4 102.4 0 1 0-204.8 0Z" fill="#322F24" p-id="15243"></path><path d="M512 0C230.4 0 0 230.4 0 512s230.4 512 512 512 512-230.4 512-512S793.6 0 512 0zM409.6 870.4c-112.64 0-204.8-92.16-204.8-204.8V256h102.4v235.52c30.72-20.48 66.56-30.72 102.4-30.72 112.64 0 204.8 92.16 204.8 204.8s-92.16 204.8-204.8 204.8z m204.8-358.4c0-56.32-46.08-102.4-102.4-102.4V307.2c112.64 0 204.8 92.16 204.8 204.8h-102.4z m153.6 0c0-143.36-112.64-256-256-256V153.6c199.68 0 358.4 158.72 358.4 358.4h-102.4z" fill="#322F24" p-id="15244"></path></svg>